<svg width="50" height="50" viewBox="0 0 50 50" fill="none" xmlns="http://www.w3.org/2000/svg">
<path d="M17.6477 4.38V29.58C17.6477 32.1 18.2677 34.04 19.5077 35.4C20.7477 36.76 22.5677 37.44 24.9677 37.44C27.3677 37.44 29.2077 36.76 30.4877 35.4C31.7677 34.04 32.4077 32.1 32.4077 29.58V4.38H42.6677V29.52C42.6677 33.28 41.8677 36.46 40.2677 39.06C38.6677 41.66 36.5077 43.62 33.7877 44.94C31.1077 46.26 28.1077 46.92 24.7877 46.92C21.4677 46.92 18.4877 46.28 15.8477 45C13.2477 43.68 11.1877 41.72 9.66766 39.12C8.14766 36.48 7.38766 33.28 7.38766 29.52V4.38H17.6477Z" fill="#FF0000"/>
</svg>
