<svg width="36" height="43" viewBox="0 0 36 43" fill="none" xmlns="http://www.w3.org/2000/svg">
<path d="M10.26 -6.19888e-06V25.2C10.26 27.72 10.88 29.66 12.12 31.02C13.36 32.38 15.18 33.06 17.58 33.06C19.98 33.06 21.82 32.38 23.1 31.02C24.38 29.66 25.02 27.72 25.02 25.2V-6.19888e-06H35.28V25.14C35.28 28.9 34.48 32.08 32.88 34.68C31.28 37.28 29.12 39.24 26.4 40.56C23.72 41.88 20.72 42.54 17.4 42.54C14.08 42.54 11.1 41.9 8.45996 40.62C5.85996 39.3 3.79996 37.34 2.27996 34.74C0.759961 32.1 -3.88175e-05 28.9 -3.88175e-05 25.14V-6.19888e-06H10.26Z" fill="#FF0000"/>
</svg>
